<svg xmlns="http://www.w3.org/2000/svg" width="768" height="960" viewBox="0 0 768 960" role="img" aria-label="Portrait — sample illustration">
<defs>
<linearGradient id="sky" x1="0" y1="0" x2="0" y2="1"><stop offset="0" stop-color="oklch(0.42 0.1 30)"/><stop offset="0.55" stop-color="oklch(0.5 0.12 30)"/><stop offset="1" stop-color="oklch(0.34 0.08 30)"/></linearGradient>
<linearGradient id="vig" x1="0" y1="0" x2="0" y2="1"><stop offset="0.5" stop-color="#000" stop-opacity="0"/><stop offset="1" stop-color="#000" stop-opacity="0.38"/></linearGradient>
<radialGradient id="glow" cx="0.5" cy="0.5" r="0.5"><stop offset="0" stop-color="#fff3e0" stop-opacity="0.9"/><stop offset="0.35" stop-color="#fff3e0" stop-opacity="0.25"/><stop offset="1" stop-color="#fff3e0" stop-opacity="0"/></radialGradient>
</defs>
<rect x="0" y="0" width="768" height="960" fill="url(#sky)" />
<circle cx="476.2" cy="268.8" r="403.2" fill="url(#glow)" />
<g><path d="M30.7 714.7 Q384 637.9 737.3 714.7 L744.3 960 L23.7 960 Z" fill="#f2eadb" stroke="#2a1f1e" stroke-width="6.1" stroke-linejoin="round"/><path d="M30.7 714.7 L271 685.9 L288.6 960 L23.7 960 Z" fill="#6b4a2e" stroke="#2a1f1e" stroke-width="6.1" stroke-linejoin="round"/><path d="M737.3 714.7 L497 685.9 L479.4 960 L744.3 960 Z" fill="#6b4a2e" stroke="#2a1f1e" stroke-width="6.1" stroke-linejoin="round"/><circle cx="48.4" cy="801.1" r="9.2" fill="#c9a24a" /><circle cx="55.7" cy="829.9" r="9.2" fill="#c9a24a" /><circle cx="61.3" cy="858.7" r="9.2" fill="#c9a24a" /><circle cx="63.7" cy="887.5" r="9.2" fill="#c9a24a" /><circle cx="62.4" cy="916.3" r="9.2" fill="#c9a24a" /><circle cx="57.6" cy="945.1" r="9.2" fill="#c9a24a" /><circle cx="50.6" cy="973.9" r="9.2" fill="#c9a24a" /><circle cx="43" cy="1002.7" r="9.2" fill="#c9a24a" /><circle cx="36.8" cy="1031.5" r="9.2" fill="#c9a24a" /><rect x="343.3" y="511.7" width="102.1" height="173.3" fill="#a57e58" /><ellipse cx="397.8" cy="384" rx="145.9" ry="182.4" fill="#c99a6b" stroke="#2a1f1e" stroke-width="6.1" stroke-linejoin="round"/><ellipse cx="397.8" cy="520.8" rx="116.7" ry="54.7" fill="#bb8f64" /><ellipse cx="249" cy="393.1" rx="23.7" ry="36.5" fill="#c99a6b" stroke="#2a1f1e" stroke-width="6.1" stroke-linejoin="round"/><ellipse cx="546.7" cy="393.1" rx="23.7" ry="36.5" fill="#c99a6b" stroke="#2a1f1e" stroke-width="6.1" stroke-linejoin="round"/><path d="M254.8 320.2 Q339.5 174.2 470.8 179.7 Q551 219.8 543.7 329.3 Q500 270.9 397.8 263.6 Q295.7 274.6 254.8 320.2 Z" fill="#b8b3ac" stroke="#2a1f1e" stroke-width="6.1" stroke-linejoin="round"/><path d="M383.2 219.8 q43.8 -18.2 87.6 9.1" fill="none" stroke="#cac6c1" stroke-width="3" opacity="0.6"/><ellipse cx="339.5" cy="380.4" rx="14.7" ry="8.9" fill="#f6f2ea" /><circle cx="349.8" cy="380.4" r="8.9" fill="#2b2422" /><path d="M324.1 375.2 Q339.5 367.6 354.8 375.2" fill="#c99a6b" /><ellipse cx="456.2" cy="380.4" rx="14.7" ry="8.9" fill="#f6f2ea" /><circle cx="466.6" cy="380.4" r="8.9" fill="#2b2422" /><path d="M440.9 375.2 Q456.2 367.6 471.5 375.2" fill="#c99a6b" /><path d="M322.9 356.1 q16.6 -11.5 33.2 -1.3" fill="none" stroke="#8a8580" stroke-width="5.7" stroke-linecap="round"/><path d="M439.6 356.1 q16.6 -11.5 33.2 -1.3" fill="none" stroke="#8a8580" stroke-width="5.7" stroke-linecap="round"/><path d="M411.6 402.2 q18.2 63.8 -9.1 73" fill="none" stroke="#916f4d" stroke-width="3.8" stroke-linecap="round"/><path d="M324.9 489.8 Q397.8 429.6 470.8 489.8 Q397.8 515.3 324.9 489.8 Z" fill="#b8b3ac" stroke="#2a1f1e" stroke-width="6.1" stroke-linejoin="round"/><circle cx="339.5" cy="256.3" r="36.5" fill="none" stroke="#3a3430" stroke-width="4.5"/><circle cx="456.2" cy="256.3" r="36.5" fill="none" stroke="#3a3430" stroke-width="4.5"/><line x1="368.6" y1="256.3" x2="427" y2="256.3" stroke="#3a3430" stroke-width="4.5" stroke-linecap="round" /></g>
<rect width="768" height="960" fill="url(#vig)"/>
<g transform="translate(640.4, 893.3)"><rect width="110.2" height="36" rx="8.1" fill="black" opacity="0.5"/><text x="55.1" y="25.5" text-anchor="middle" font-family="Inter, system-ui, sans-serif" font-size="17.4" font-weight="700" letter-spacing="1" fill="white" opacity="0.9">SAMPLE</text></g>
</svg>