<svg xmlns="http://www.w3.org/2000/svg" width="768" height="960" viewBox="0 0 768 960" role="img" aria-label="Portrait — sample illustration">
<defs>
<linearGradient id="sky" x1="0" y1="0" x2="0" y2="1"><stop offset="0" stop-color="oklch(0.42 0.1 300)"/><stop offset="0.55" stop-color="oklch(0.5 0.12 300)"/><stop offset="1" stop-color="oklch(0.34 0.08 300)"/></linearGradient>
<linearGradient id="vig" x1="0" y1="0" x2="0" y2="1"><stop offset="0.5" stop-color="#000" stop-opacity="0"/><stop offset="1" stop-color="#000" stop-opacity="0.38"/></linearGradient>
<radialGradient id="glow" cx="0.5" cy="0.5" r="0.5"><stop offset="0" stop-color="#fff3e0" stop-opacity="0.9"/><stop offset="0.35" stop-color="#fff3e0" stop-opacity="0.25"/><stop offset="1" stop-color="#fff3e0" stop-opacity="0"/></radialGradient>
</defs>
<rect x="0" y="0" width="768" height="960" fill="url(#sky)" />
<circle cx="476.2" cy="268.8" r="403.2" fill="url(#glow)" />
<g><path d="M107.5 714.7 Q384 637.9 660.5 714.7 L666 960 L102 960 Z" fill="#2f8f8a" /><path d="M107.5 714.7 L295.5 685.9 L309.4 960 L102 960 Z" fill="#7f838b" /><path d="M660.5 714.7 L472.5 685.9 L458.6 960 L666 960 Z" fill="#7f838b" /><path d="M301.1 685.9 L384 877.9 L466.9 685.9" fill="none" stroke="#c94c4c" stroke-width="7.7"/><rect x="353.3" y="858.7" width="61.4" height="57.6" fill="#f4f4f0" rx="3"/><rect x="346.8" y="511.7" width="102.1" height="173.3" fill="#c6b5ab" /><path d="M187 520.8 L198 329.3 Q384 137.8 570 329.3 L581 520.8 Z" fill="#15121a" /><path d="M241.7 384 Q241.7 201.6 384 201.6 Q533.4 201.6 529.1 365.8 L557.6 416.8 L526.3 435.1 L533.4 475.2 Q483.6 570 384 566.4 Q241.7 566.4 241.7 384 Z" fill="#f1ddd0" /><ellipse cx="305.8" cy="393.1" rx="23.7" ry="36.5" fill="#d9c7bb" /><path d="M253 365.8 Q331.3 150.5 487.8 165.1 Q551.8 201.6 551.8 365.8 L524.8 365.8 Q473.6 283.7 374 270.9 Q295.7 283.7 280.1 374.9 Z" fill="#15121a" /><ellipse cx="423.8" cy="408.4" rx="28.1" ry="14" fill="#6b5c78" opacity="0.35"/><ellipse cx="423.8" cy="380.4" rx="23.1" ry="20.1" fill="#f6f2ea" /><circle cx="427.8" cy="380.4" r="14" fill="#2b2422" /><circle cx="417.8" cy="373.3" r="5" fill="#fff" /><path d="M397.7 342.2 q26.1 -18.1 52.2 -2" fill="none" stroke="#15121a" stroke-width="9" stroke-linecap="round"/><path d="M395.3 493.4 Q420.9 508 446.5 493.4" fill="none" stroke="#958981" stroke-width="9" stroke-linecap="round"/></g>
<rect width="768" height="960" fill="url(#vig)"/>
<g transform="translate(640.4, 893.3)"><rect width="110.2" height="36" rx="8.1" fill="black" opacity="0.5"/><text x="55.1" y="25.5" text-anchor="middle" font-family="Inter, system-ui, sans-serif" font-size="17.4" font-weight="700" letter-spacing="1" fill="white" opacity="0.9">SAMPLE</text></g>
</svg>