<svg xmlns="http://www.w3.org/2000/svg" width="800" height="1200" viewBox="0 0 800 1200" role="img" aria-label="Paper Boats — sample illustration">
<defs>
<linearGradient id="sky" x1="0" y1="0" x2="0" y2="1"><stop offset="0" stop-color="#37424e"/><stop offset="0.55" stop-color="#657580"/><stop offset="1" stop-color="#9aa6ad"/></linearGradient>
<linearGradient id="vig" x1="0" y1="0" x2="0" y2="1"><stop offset="0.5" stop-color="#000" stop-opacity="0"/><stop offset="1" stop-color="#000" stop-opacity="0.38"/></linearGradient>
<radialGradient id="glow" cx="0.5" cy="0.5" r="0.5"><stop offset="0" stop-color="#e4ebef" stop-opacity="0.9"/><stop offset="0.35" stop-color="#e4ebef" stop-opacity="0.25"/><stop offset="1" stop-color="#e4ebef" stop-opacity="0"/></radialGradient>
</defs>
<rect x="0" y="0" width="800" height="1200" fill="url(#sky)" />
<rect x="352" y="432" width="96" height="240" fill="#4b4b48" />
<path d="M368 672 L368 528 Q400 432 432 528 L432 672 Z" fill="#e4ebef" opacity="0.8"/>
<polygon points="0,24 288,384 288,816 0,1176" fill="#7d7d78" />
<polygon points="800,24 512,384 512,816 800,1176" fill="#676762" />
<rect x="40" y="168" width="40" height="120" fill="#383836" />
<rect x="720" y="168" width="40" height="120" fill="#323230" />
<rect x="84.8" y="216" width="35.2" height="105.6" fill="#383836" />
<rect x="680" y="216" width="35.2" height="105.6" fill="#323230" />
<rect x="129.6" y="264" width="30.4" height="91.2" fill="#383836" />
<rect x="640" y="264" width="30.4" height="91.2" fill="#323230" />
<rect x="174.4" y="312" width="25.6" height="76.8" fill="#383836" />
<rect x="600" y="312" width="25.6" height="76.8" fill="#323230" />
<rect x="219.2" y="360" width="20.8" height="62.4" fill="#383836" />
<rect x="560" y="360" width="20.8" height="62.4" fill="#323230" />
<polygon points="0,1176 288,816 512,816 800,1176 800,1200 0,1200" fill="#363c43" />
<polygon points="0,1200 288,816 512,816 800,1200" fill="#4e535a" />
<polygon points="48,1200 296,816 308,828 80,1200" fill="#262a2f" />
<polygon points="117.2,1065.6 152.4,1065.6 144.4,1029.6 125.2,1029.6" fill="#f2efe6" />
<polygon points="130,1029.6 139.6,1029.6 134.8,987.6" fill="#f2efe6" />
<polygon points="184.5,969.6 209.1,969.6 203.5,944.4 190.1,944.4" fill="#f2efe6" />
<polygon points="193.4,944.4 200.2,944.4 196.8,915" fill="#f2efe6" />
<polygon points="12,571.2 120,609.6 114.8,657.6 12,628.8" fill="#5a4a3a" opacity="0.92"/>
<rect x="16" y="676.8" width="104" height="67.2" fill="#3f3f3c" />
<rect x="16" y="625" width="10.6" height="53.8" fill="#b8473a" opacity="0.9"/>
<rect x="27.6" y="625" width="10.6" height="53.8" fill="#3f6fb0" opacity="0.9"/>
<rect x="39.1" y="625" width="10.6" height="53.8" fill="#d9a441" opacity="0.9"/>
<rect x="50.7" y="625" width="10.6" height="53.8" fill="#3d8a63" opacity="0.9"/>
<rect x="62.2" y="625" width="10.6" height="53.8" fill="#7a4f9a" opacity="0.9"/>
<rect x="73.8" y="625" width="10.6" height="53.8" fill="#e0e0d8" opacity="0.9"/>
<rect x="85.3" y="625" width="10.6" height="53.8" fill="#c66b2b" opacity="0.9"/>
<rect x="96.9" y="625" width="10.6" height="53.8" fill="#b8473a" opacity="0.9"/>
<rect x="108.4" y="625" width="10.6" height="53.8" fill="#3f6fb0" opacity="0.9"/>
<polygon points="116,461.8 203.2,492.5 199,530.9 116,507.8" fill="#5a4a3a" opacity="0.92"/>
<rect x="120" y="546.2" width="83.2" height="53.8" fill="#3f3f3c" />
<rect x="120" y="504.8" width="8.2" height="43" fill="#d9a441" opacity="0.9"/>
<rect x="129.2" y="504.8" width="8.2" height="43" fill="#3d8a63" opacity="0.9"/>
<rect x="138.5" y="504.8" width="8.2" height="43" fill="#7a4f9a" opacity="0.9"/>
<rect x="147.7" y="504.8" width="8.2" height="43" fill="#e0e0d8" opacity="0.9"/>
<rect x="157" y="504.8" width="8.2" height="43" fill="#c66b2b" opacity="0.9"/>
<rect x="166.2" y="504.8" width="8.2" height="43" fill="#b8473a" opacity="0.9"/>
<rect x="175.5" y="504.8" width="8.2" height="43" fill="#3f6fb0" opacity="0.9"/>
<rect x="184.7" y="504.8" width="8.2" height="43" fill="#d9a441" opacity="0.9"/>
<rect x="194" y="504.8" width="8.2" height="43" fill="#3d8a63" opacity="0.9"/>
<polygon points="196,396.9 264.5,420.7 261.3,450.4 196,432.6" fill="#5a4a3a" opacity="0.92"/>
<rect x="200" y="462.3" width="64.5" height="41.7" fill="#3f3f3c" />
<rect x="200" y="430.2" width="6.2" height="33.3" fill="#3d8a63" opacity="0.9"/>
<rect x="207.2" y="430.2" width="6.2" height="33.3" fill="#7a4f9a" opacity="0.9"/>
<rect x="214.3" y="430.2" width="6.2" height="33.3" fill="#e0e0d8" opacity="0.9"/>
<rect x="221.5" y="430.2" width="6.2" height="33.3" fill="#c66b2b" opacity="0.9"/>
<rect x="228.7" y="430.2" width="6.2" height="33.3" fill="#b8473a" opacity="0.9"/>
<rect x="235.8" y="430.2" width="6.2" height="33.3" fill="#3f6fb0" opacity="0.9"/>
<rect x="243" y="430.2" width="6.2" height="33.3" fill="#d9a441" opacity="0.9"/>
<rect x="250.2" y="430.2" width="6.2" height="33.3" fill="#3d8a63" opacity="0.9"/>
<rect x="257.3" y="430.2" width="6.2" height="33.3" fill="#7a4f9a" opacity="0.9"/>
<polygon points="244,357.6 300,376.8 297.4,400.8 244,386.4" fill="#5a4a3a" opacity="0.92"/>
<rect x="248" y="410.4" width="52" height="33.6" fill="#3f3f3c" />
<rect x="248" y="384.5" width="4.8" height="26.9" fill="#3d8a63" opacity="0.9"/>
<rect x="253.8" y="384.5" width="4.8" height="26.9" fill="#7a4f9a" opacity="0.9"/>
<rect x="259.6" y="384.5" width="4.8" height="26.9" fill="#e0e0d8" opacity="0.9"/>
<rect x="265.3" y="384.5" width="4.8" height="26.9" fill="#c66b2b" opacity="0.9"/>
<rect x="271.1" y="384.5" width="4.8" height="26.9" fill="#b8473a" opacity="0.9"/>
<rect x="276.9" y="384.5" width="4.8" height="26.9" fill="#3f6fb0" opacity="0.9"/>
<rect x="282.7" y="384.5" width="4.8" height="26.9" fill="#d9a441" opacity="0.9"/>
<rect x="288.4" y="384.5" width="4.8" height="26.9" fill="#3d8a63" opacity="0.9"/>
<rect x="294.2" y="384.5" width="4.8" height="26.9" fill="#7a4f9a" opacity="0.9"/>
<rect x="137.6" y="1032.3" width="20.4" height="114.2" fill="#776b32" /><rect x="162" y="1032.3" width="20.4" height="114.2" fill="#6d612d" /><path d="M119.2 947.5 Q160 931.2 200.8 947.5 L197.5 1037.8 L122.5 1037.8 Z" fill="#d9c25a" /><line x1="121.2" y1="955.7" x2="117.2" y2="1032.3" stroke="#d9c25a" stroke-width="12.2" stroke-linecap="round" /><line x1="198.8" y1="955.7" x2="202.8" y2="1032.3" stroke="#d9c25a" stroke-width="12.2" stroke-linecap="round" /><rect x="153.1" y="923.9" width="13.9" height="13.9" fill="#a97f5a" /><ellipse cx="160" cy="905.4" rx="20.8" ry="23.1" fill="#c7956a" /><circle cx="139.2" cy="888.5" r="7.4" fill="#1a1416" /><circle cx="146.1" cy="886.9" r="7.4" fill="#1a1416" /><circle cx="153.1" cy="885.7" r="7.4" fill="#1a1416" /><circle cx="160" cy="885.3" r="7.4" fill="#1a1416" /><circle cx="166.9" cy="885.7" r="7.4" fill="#1a1416" /><circle cx="173.9" cy="886.9" r="7.4" fill="#1a1416" /><circle cx="180.8" cy="888.5" r="7.4" fill="#1a1416" />
<rect x="213.5" y="1065.4" width="16.8" height="94.1" fill="#2a4669" /><rect x="233.7" y="1065.4" width="16.8" height="94.1" fill="#274060" /><path d="M198.4 995.6 Q232 982.2 265.6 995.6 L262.9 1069.9 L201.1 1069.9 Z" fill="#4d7fbf" /><line x1="200.1" y1="1002.3" x2="196.7" y2="1065.4" stroke="#4d7fbf" stroke-width="10.1" stroke-linecap="round" /><line x1="263.9" y1="1002.3" x2="267.3" y2="1065.4" stroke="#4d7fbf" stroke-width="10.1" stroke-linecap="round" /><rect x="226.3" y="976.2" width="11.4" height="11.4" fill="#9a6c4a" /><ellipse cx="232" cy="960.9" rx="17.1" ry="19" fill="#b57f57" /><circle cx="214.9" cy="947" r="6.1" fill="#1a1416" /><circle cx="220.6" cy="945.7" r="6.1" fill="#1a1416" /><circle cx="226.3" cy="944.7" r="6.1" fill="#1a1416" /><circle cx="232" cy="944.4" r="6.1" fill="#1a1416" /><circle cx="237.7" cy="944.7" r="6.1" fill="#1a1416" /><circle cx="243.4" cy="945.7" r="6.1" fill="#1a1416" /><circle cx="249.1" cy="947" r="6.1" fill="#1a1416" />
<line x1="171.1" y1="661" x2="166.3" y2="721" stroke="#dfe8ee" stroke-width="1.2" stroke-linecap="round" opacity="0.35"/>
<line x1="648.4" y1="685.5" x2="643.6" y2="745.5" stroke="#dfe8ee" stroke-width="1.2" stroke-linecap="round" opacity="0.35"/>
<line x1="597.7" y1="1196.5" x2="592.9" y2="1256.5" stroke="#dfe8ee" stroke-width="1.2" stroke-linecap="round" opacity="0.35"/>
<line x1="797.7" y1="1196.5" x2="792.9" y2="1256.5" stroke="#dfe8ee" stroke-width="1.2" stroke-linecap="round" opacity="0.35"/>
<line x1="797.7" y1="1196.5" x2="792.9" y2="1256.5" stroke="#dfe8ee" stroke-width="1.2" stroke-linecap="round" opacity="0.35"/>
<line x1="797.7" y1="1196.5" x2="792.9" y2="1256.5" stroke="#dfe8ee" stroke-width="1.2" stroke-linecap="round" opacity="0.35"/>
<line x1="797.7" y1="1196.5" x2="792.9" y2="1256.5" stroke="#dfe8ee" stroke-width="1.2" stroke-linecap="round" opacity="0.35"/>
<line x1="797.7" y1="1196.5" x2="792.9" y2="1256.5" stroke="#dfe8ee" stroke-width="1.2" stroke-linecap="round" opacity="0.35"/>
<line x1="797.7" y1="1196.5" x2="792.9" y2="1256.5" stroke="#dfe8ee" stroke-width="1.2" stroke-linecap="round" opacity="0.35"/>
<line x1="797.7" y1="1196.5" x2="792.9" y2="1256.5" stroke="#dfe8ee" stroke-width="1.2" stroke-linecap="round" opacity="0.35"/>
<line x1="797.7" y1="1196.5" x2="792.9" y2="1256.5" stroke="#dfe8ee" stroke-width="1.2" stroke-linecap="round" opacity="0.35"/>
<line x1="797.7" y1="1196.5" x2="792.9" y2="1256.5" stroke="#dfe8ee" stroke-width="1.2" stroke-linecap="round" opacity="0.35"/>
<line x1="797.7" y1="1196.5" x2="792.9" y2="1256.5" stroke="#dfe8ee" stroke-width="1.2" stroke-linecap="round" opacity="0.35"/>
<line x1="797.7" y1="1196.5" x2="792.9" y2="1256.5" stroke="#dfe8ee" stroke-width="1.2" stroke-linecap="round" opacity="0.35"/>
<line x1="797.7" y1="1196.5" x2="792.9" y2="1256.5" stroke="#dfe8ee" stroke-width="1.2" stroke-linecap="round" opacity="0.35"/>
<line x1="797.7" y1="1196.5" x2="792.9" y2="1256.5" stroke="#dfe8ee" stroke-width="1.2" stroke-linecap="round" opacity="0.35"/>
<line x1="797.7" y1="1196.5" x2="792.9" y2="1256.5" stroke="#dfe8ee" stroke-width="1.2" stroke-linecap="round" opacity="0.35"/>
<line x1="797.7" y1="1196.5" x2="792.9" y2="1256.5" stroke="#dfe8ee" stroke-width="1.2" stroke-linecap="round" opacity="0.35"/>
<line x1="797.7" y1="1196.5" x2="792.9" y2="1256.5" stroke="#dfe8ee" stroke-width="1.2" stroke-linecap="round" opacity="0.35"/>
<line x1="797.7" y1="1196.5" x2="792.9" y2="1256.5" stroke="#dfe8ee" stroke-width="1.2" stroke-linecap="round" opacity="0.35"/>
<line x1="797.7" y1="1196.5" x2="792.9" y2="1256.5" stroke="#dfe8ee" stroke-width="1.2" stroke-linecap="round" opacity="0.35"/>
<line x1="797.7" y1="1196.5" x2="792.9" y2="1256.5" stroke="#dfe8ee" stroke-width="1.2" stroke-linecap="round" opacity="0.35"/>
<line x1="797.7" y1="1196.5" x2="792.9" y2="1256.5" stroke="#dfe8ee" stroke-width="1.2" stroke-linecap="round" opacity="0.35"/>
<line x1="797.7" y1="1196.5" x2="792.9" y2="1256.5" stroke="#dfe8ee" stroke-width="1.2" stroke-linecap="round" opacity="0.35"/>
<line x1="797.7" y1="1196.5" x2="792.9" y2="1256.5" stroke="#dfe8ee" stroke-width="1.2" stroke-linecap="round" opacity="0.35"/>
<line x1="797.7" y1="1196.5" x2="792.9" y2="1256.5" stroke="#dfe8ee" stroke-width="1.2" stroke-linecap="round" opacity="0.35"/>
<line x1="797.7" y1="1196.5" x2="792.9" y2="1256.5" stroke="#dfe8ee" stroke-width="1.2" stroke-linecap="round" opacity="0.35"/>
<line x1="797.7" y1="1196.5" x2="792.9" y2="1256.5" stroke="#dfe8ee" stroke-width="1.2" stroke-linecap="round" opacity="0.35"/>
<line x1="797.7" y1="1196.5" x2="792.9" y2="1256.5" stroke="#dfe8ee" stroke-width="1.2" stroke-linecap="round" opacity="0.35"/>
<line x1="797.7" y1="1196.5" x2="792.9" y2="1256.5" stroke="#dfe8ee" stroke-width="1.2" stroke-linecap="round" opacity="0.35"/>
<line x1="797.7" y1="1196.5" x2="792.9" y2="1256.5" stroke="#dfe8ee" stroke-width="1.2" stroke-linecap="round" opacity="0.35"/>
<line x1="797.7" y1="1196.5" x2="792.9" y2="1256.5" stroke="#dfe8ee" stroke-width="1.2" stroke-linecap="round" opacity="0.35"/>
<line x1="797.7" y1="1196.5" x2="792.9" y2="1256.5" stroke="#dfe8ee" stroke-width="1.2" stroke-linecap="round" opacity="0.35"/>
<line x1="797.7" y1="1196.5" x2="792.9" y2="1256.5" stroke="#dfe8ee" stroke-width="1.2" stroke-linecap="round" opacity="0.35"/>
<line x1="797.7" y1="1196.5" x2="792.9" y2="1256.5" stroke="#dfe8ee" stroke-width="1.2" stroke-linecap="round" opacity="0.35"/>
<line x1="797.7" y1="1196.5" x2="792.9" y2="1256.5" stroke="#dfe8ee" stroke-width="1.2" stroke-linecap="round" opacity="0.35"/>
<line x1="797.7" y1="1196.5" x2="792.9" y2="1256.5" stroke="#dfe8ee" stroke-width="1.2" stroke-linecap="round" opacity="0.35"/>
<line x1="797.7" y1="1196.5" x2="792.9" y2="1256.5" stroke="#dfe8ee" stroke-width="1.2" stroke-linecap="round" opacity="0.35"/>
<line x1="797.7" y1="1196.5" x2="792.9" y2="1256.5" stroke="#dfe8ee" stroke-width="1.2" stroke-linecap="round" opacity="0.35"/>
<line x1="797.7" y1="1196.5" x2="792.9" y2="1256.5" stroke="#dfe8ee" stroke-width="1.2" stroke-linecap="round" opacity="0.35"/>
<line x1="797.7" y1="1196.5" x2="792.9" y2="1256.5" stroke="#dfe8ee" stroke-width="1.2" stroke-linecap="round" opacity="0.35"/>
<line x1="797.7" y1="1196.5" x2="792.9" y2="1256.5" stroke="#dfe8ee" stroke-width="1.2" stroke-linecap="round" opacity="0.35"/>
<line x1="797.7" y1="1196.5" x2="792.9" y2="1256.5" stroke="#dfe8ee" stroke-width="1.2" stroke-linecap="round" opacity="0.35"/>
<line x1="797.7" y1="1196.5" x2="792.9" y2="1256.5" stroke="#dfe8ee" stroke-width="1.2" stroke-linecap="round" opacity="0.35"/>
<line x1="797.7" y1="1196.5" x2="792.9" y2="1256.5" stroke="#dfe8ee" stroke-width="1.2" stroke-linecap="round" opacity="0.35"/>
<line x1="797.7" y1="1196.5" x2="792.9" y2="1256.5" stroke="#dfe8ee" stroke-width="1.2" stroke-linecap="round" opacity="0.35"/>
<line x1="797.7" y1="1196.5" x2="792.9" y2="1256.5" stroke="#dfe8ee" stroke-width="1.2" stroke-linecap="round" opacity="0.35"/>
<line x1="797.7" y1="1196.5" x2="792.9" y2="1256.5" stroke="#dfe8ee" stroke-width="1.2" stroke-linecap="round" opacity="0.35"/>
<line x1="797.7" y1="1196.5" x2="792.9" y2="1256.5" stroke="#dfe8ee" stroke-width="1.2" stroke-linecap="round" opacity="0.35"/>
<line x1="797.7" y1="1196.5" x2="792.9" y2="1256.5" stroke="#dfe8ee" stroke-width="1.2" stroke-linecap="round" opacity="0.35"/>
<line x1="797.7" y1="1196.5" x2="792.9" y2="1256.5" stroke="#dfe8ee" stroke-width="1.2" stroke-linecap="round" opacity="0.35"/>
<line x1="797.7" y1="1196.5" x2="792.9" y2="1256.5" stroke="#dfe8ee" stroke-width="1.2" stroke-linecap="round" opacity="0.35"/>
<line x1="797.7" y1="1196.5" x2="792.9" y2="1256.5" stroke="#dfe8ee" stroke-width="1.2" stroke-linecap="round" opacity="0.35"/>
<line x1="797.7" y1="1196.5" x2="792.9" y2="1256.5" stroke="#dfe8ee" stroke-width="1.2" stroke-linecap="round" opacity="0.35"/>
<line x1="797.7" y1="1196.5" x2="792.9" y2="1256.5" stroke="#dfe8ee" stroke-width="1.2" stroke-linecap="round" opacity="0.35"/>
<line x1="797.7" y1="1196.5" x2="792.9" y2="1256.5" stroke="#dfe8ee" stroke-width="1.2" stroke-linecap="round" opacity="0.35"/>
<line x1="797.7" y1="1196.5" x2="792.9" y2="1256.5" stroke="#dfe8ee" stroke-width="1.2" stroke-linecap="round" opacity="0.35"/>
<line x1="797.7" y1="1196.5" x2="792.9" y2="1256.5" stroke="#dfe8ee" stroke-width="1.2" stroke-linecap="round" opacity="0.35"/>
<line x1="797.7" y1="1196.5" x2="792.9" y2="1256.5" stroke="#dfe8ee" stroke-width="1.2" stroke-linecap="round" opacity="0.35"/>
<line x1="797.7" y1="1196.5" x2="792.9" y2="1256.5" stroke="#dfe8ee" stroke-width="1.2" stroke-linecap="round" opacity="0.35"/>
<line x1="797.7" y1="1196.5" x2="792.9" y2="1256.5" stroke="#dfe8ee" stroke-width="1.2" stroke-linecap="round" opacity="0.35"/>
<line x1="797.7" y1="1196.5" x2="792.9" y2="1256.5" stroke="#dfe8ee" stroke-width="1.2" stroke-linecap="round" opacity="0.35"/>
<line x1="797.7" y1="1196.5" x2="792.9" y2="1256.5" stroke="#dfe8ee" stroke-width="1.2" stroke-linecap="round" opacity="0.35"/>
<line x1="797.7" y1="1196.5" x2="792.9" y2="1256.5" stroke="#dfe8ee" stroke-width="1.2" stroke-linecap="round" opacity="0.35"/>
<line x1="797.7" y1="1196.5" x2="792.9" y2="1256.5" stroke="#dfe8ee" stroke-width="1.2" stroke-linecap="round" opacity="0.35"/>
<line x1="797.7" y1="1196.5" x2="792.9" y2="1256.5" stroke="#dfe8ee" stroke-width="1.2" stroke-linecap="round" opacity="0.35"/>
<line x1="797.7" y1="1196.5" x2="792.9" y2="1256.5" stroke="#dfe8ee" stroke-width="1.2" stroke-linecap="round" opacity="0.35"/>
<line x1="797.7" y1="1196.5" x2="792.9" y2="1256.5" stroke="#dfe8ee" stroke-width="1.2" stroke-linecap="round" opacity="0.35"/>
<line x1="797.7" y1="1196.5" x2="792.9" y2="1256.5" stroke="#dfe8ee" stroke-width="1.2" stroke-linecap="round" opacity="0.35"/>
<line x1="797.7" y1="1196.5" x2="792.9" y2="1256.5" stroke="#dfe8ee" stroke-width="1.2" stroke-linecap="round" opacity="0.35"/>
<line x1="797.7" y1="1196.5" x2="792.9" y2="1256.5" stroke="#dfe8ee" stroke-width="1.2" stroke-linecap="round" opacity="0.35"/>
<line x1="797.7" y1="1196.5" x2="792.9" y2="1256.5" stroke="#dfe8ee" stroke-width="1.2" stroke-linecap="round" opacity="0.35"/>
<line x1="797.7" y1="1196.5" x2="792.9" y2="1256.5" stroke="#dfe8ee" stroke-width="1.2" stroke-linecap="round" opacity="0.35"/>
<line x1="797.7" y1="1196.5" x2="792.9" y2="1256.5" stroke="#dfe8ee" stroke-width="1.2" stroke-linecap="round" opacity="0.35"/>
<line x1="797.7" y1="1196.5" x2="792.9" y2="1256.5" stroke="#dfe8ee" stroke-width="1.2" stroke-linecap="round" opacity="0.35"/>
<line x1="797.7" y1="1196.5" x2="792.9" y2="1256.5" stroke="#dfe8ee" stroke-width="1.2" stroke-linecap="round" opacity="0.35"/>
<line x1="797.7" y1="1196.5" x2="792.9" y2="1256.5" stroke="#dfe8ee" stroke-width="1.2" stroke-linecap="round" opacity="0.35"/>
<line x1="797.7" y1="1196.5" x2="792.9" y2="1256.5" stroke="#dfe8ee" stroke-width="1.2" stroke-linecap="round" opacity="0.35"/>
<line x1="797.7" y1="1196.5" x2="792.9" y2="1256.5" stroke="#dfe8ee" stroke-width="1.2" stroke-linecap="round" opacity="0.35"/>
<line x1="797.7" y1="1196.5" x2="792.9" y2="1256.5" stroke="#dfe8ee" stroke-width="1.2" stroke-linecap="round" opacity="0.35"/>
<line x1="797.7" y1="1196.5" x2="792.9" y2="1256.5" stroke="#dfe8ee" stroke-width="1.2" stroke-linecap="round" opacity="0.35"/>
<line x1="797.7" y1="1196.5" x2="792.9" y2="1256.5" stroke="#dfe8ee" stroke-width="1.2" stroke-linecap="round" opacity="0.35"/>
<line x1="797.7" y1="1196.5" x2="792.9" y2="1256.5" stroke="#dfe8ee" stroke-width="1.2" stroke-linecap="round" opacity="0.35"/>
<line x1="797.7" y1="1196.5" x2="792.9" y2="1256.5" stroke="#dfe8ee" stroke-width="1.2" stroke-linecap="round" opacity="0.35"/>
<line x1="797.7" y1="1196.5" x2="792.9" y2="1256.5" stroke="#dfe8ee" stroke-width="1.2" stroke-linecap="round" opacity="0.35"/>
<line x1="797.7" y1="1196.5" x2="792.9" y2="1256.5" stroke="#dfe8ee" stroke-width="1.2" stroke-linecap="round" opacity="0.35"/>
<line x1="797.7" y1="1196.5" x2="792.9" y2="1256.5" stroke="#dfe8ee" stroke-width="1.2" stroke-linecap="round" opacity="0.35"/>
<line x1="797.7" y1="1196.5" x2="792.9" y2="1256.5" stroke="#dfe8ee" stroke-width="1.2" stroke-linecap="round" opacity="0.35"/>
<line x1="797.7" y1="1196.5" x2="792.9" y2="1256.5" stroke="#dfe8ee" stroke-width="1.2" stroke-linecap="round" opacity="0.35"/>
<line x1="797.7" y1="1196.5" x2="792.9" y2="1256.5" stroke="#dfe8ee" stroke-width="1.2" stroke-linecap="round" opacity="0.35"/>
<line x1="797.7" y1="1196.5" x2="792.9" y2="1256.5" stroke="#dfe8ee" stroke-width="1.2" stroke-linecap="round" opacity="0.35"/>
<line x1="797.7" y1="1196.5" x2="792.9" y2="1256.5" stroke="#dfe8ee" stroke-width="1.2" stroke-linecap="round" opacity="0.35"/>
<line x1="797.7" y1="1196.5" x2="792.9" y2="1256.5" stroke="#dfe8ee" stroke-width="1.2" stroke-linecap="round" opacity="0.35"/>
<line x1="797.7" y1="1196.5" x2="792.9" y2="1256.5" stroke="#dfe8ee" stroke-width="1.2" stroke-linecap="round" opacity="0.35"/>
<line x1="797.7" y1="1196.5" x2="792.9" y2="1256.5" stroke="#dfe8ee" stroke-width="1.2" stroke-linecap="round" opacity="0.35"/>
<line x1="797.7" y1="1196.5" x2="792.9" y2="1256.5" stroke="#dfe8ee" stroke-width="1.2" stroke-linecap="round" opacity="0.35"/>
<line x1="797.7" y1="1196.5" x2="792.9" y2="1256.5" stroke="#dfe8ee" stroke-width="1.2" stroke-linecap="round" opacity="0.35"/>
<line x1="797.7" y1="1196.5" x2="792.9" y2="1256.5" stroke="#dfe8ee" stroke-width="1.2" stroke-linecap="round" opacity="0.35"/>
<line x1="797.7" y1="1196.5" x2="792.9" y2="1256.5" stroke="#dfe8ee" stroke-width="1.2" stroke-linecap="round" opacity="0.35"/>
<line x1="797.7" y1="1196.5" x2="792.9" y2="1256.5" stroke="#dfe8ee" stroke-width="1.2" stroke-linecap="round" opacity="0.35"/>
<line x1="797.7" y1="1196.5" x2="792.9" y2="1256.5" stroke="#dfe8ee" stroke-width="1.2" stroke-linecap="round" opacity="0.35"/>
<line x1="797.7" y1="1196.5" x2="792.9" y2="1256.5" stroke="#dfe8ee" stroke-width="1.2" stroke-linecap="round" opacity="0.35"/>
<line x1="797.7" y1="1196.5" x2="792.9" y2="1256.5" stroke="#dfe8ee" stroke-width="1.2" stroke-linecap="round" opacity="0.35"/>
<line x1="797.7" y1="1196.5" x2="792.9" y2="1256.5" stroke="#dfe8ee" stroke-width="1.2" stroke-linecap="round" opacity="0.35"/>
<line x1="797.7" y1="1196.5" x2="792.9" y2="1256.5" stroke="#dfe8ee" stroke-width="1.2" stroke-linecap="round" opacity="0.35"/>
<line x1="797.7" y1="1196.5" x2="792.9" y2="1256.5" stroke="#dfe8ee" stroke-width="1.2" stroke-linecap="round" opacity="0.35"/>
<line x1="797.7" y1="1196.5" x2="792.9" y2="1256.5" stroke="#dfe8ee" stroke-width="1.2" stroke-linecap="round" opacity="0.35"/>
<line x1="797.7" y1="1196.5" x2="792.9" y2="1256.5" stroke="#dfe8ee" stroke-width="1.2" stroke-linecap="round" opacity="0.35"/>
<line x1="797.7" y1="1196.5" x2="792.9" y2="1256.5" stroke="#dfe8ee" stroke-width="1.2" stroke-linecap="round" opacity="0.35"/>
<line x1="797.7" y1="1196.5" x2="792.9" y2="1256.5" stroke="#dfe8ee" stroke-width="1.2" stroke-linecap="round" opacity="0.35"/>
<line x1="797.7" y1="1196.5" x2="792.9" y2="1256.5" stroke="#dfe8ee" stroke-width="1.2" stroke-linecap="round" opacity="0.35"/>
<line x1="797.7" y1="1196.5" x2="792.9" y2="1256.5" stroke="#dfe8ee" stroke-width="1.2" stroke-linecap="round" opacity="0.35"/>
<line x1="797.7" y1="1196.5" x2="792.9" y2="1256.5" stroke="#dfe8ee" stroke-width="1.2" stroke-linecap="round" opacity="0.35"/>
<line x1="797.7" y1="1196.5" x2="792.9" y2="1256.5" stroke="#dfe8ee" stroke-width="1.2" stroke-linecap="round" opacity="0.35"/>
<line x1="797.7" y1="1196.5" x2="792.9" y2="1256.5" stroke="#dfe8ee" stroke-width="1.2" stroke-linecap="round" opacity="0.35"/>
<line x1="797.7" y1="1196.5" x2="792.9" y2="1256.5" stroke="#dfe8ee" stroke-width="1.2" stroke-linecap="round" opacity="0.35"/>
<line x1="797.7" y1="1196.5" x2="792.9" y2="1256.5" stroke="#dfe8ee" stroke-width="1.2" stroke-linecap="round" opacity="0.35"/>
<line x1="797.7" y1="1196.5" x2="792.9" y2="1256.5" stroke="#dfe8ee" stroke-width="1.2" stroke-linecap="round" opacity="0.35"/>
<line x1="797.7" y1="1196.5" x2="792.9" y2="1256.5" stroke="#dfe8ee" stroke-width="1.2" stroke-linecap="round" opacity="0.35"/>
<line x1="797.7" y1="1196.5" x2="792.9" y2="1256.5" stroke="#dfe8ee" stroke-width="1.2" stroke-linecap="round" opacity="0.35"/>
<line x1="797.7" y1="1196.5" x2="792.9" y2="1256.5" stroke="#dfe8ee" stroke-width="1.2" stroke-linecap="round" opacity="0.35"/>
<line x1="797.7" y1="1196.5" x2="792.9" y2="1256.5" stroke="#dfe8ee" stroke-width="1.2" stroke-linecap="round" opacity="0.35"/>
<line x1="797.7" y1="1196.5" x2="792.9" y2="1256.5" stroke="#dfe8ee" stroke-width="1.2" stroke-linecap="round" opacity="0.35"/>
<line x1="797.7" y1="1196.5" x2="792.9" y2="1256.5" stroke="#dfe8ee" stroke-width="1.2" stroke-linecap="round" opacity="0.35"/>
<line x1="797.7" y1="1196.5" x2="792.9" y2="1256.5" stroke="#dfe8ee" stroke-width="1.2" stroke-linecap="round" opacity="0.35"/>
<line x1="797.7" y1="1196.5" x2="792.9" y2="1256.5" stroke="#dfe8ee" stroke-width="1.2" stroke-linecap="round" opacity="0.35"/>
<line x1="797.7" y1="1196.5" x2="792.9" y2="1256.5" stroke="#dfe8ee" stroke-width="1.2" stroke-linecap="round" opacity="0.35"/>
<line x1="797.7" y1="1196.5" x2="792.9" y2="1256.5" stroke="#dfe8ee" stroke-width="1.2" stroke-linecap="round" opacity="0.35"/>
<line x1="797.7" y1="1196.5" x2="792.9" y2="1256.5" stroke="#dfe8ee" stroke-width="1.2" stroke-linecap="round" opacity="0.35"/>
<line x1="797.7" y1="1196.5" x2="792.9" y2="1256.5" stroke="#dfe8ee" stroke-width="1.2" stroke-linecap="round" opacity="0.35"/>
<line x1="797.7" y1="1196.5" x2="792.9" y2="1256.5" stroke="#dfe8ee" stroke-width="1.2" stroke-linecap="round" opacity="0.35"/>
<line x1="797.7" y1="1196.5" x2="792.9" y2="1256.5" stroke="#dfe8ee" stroke-width="1.2" stroke-linecap="round" opacity="0.35"/>
<line x1="797.7" y1="1196.5" x2="792.9" y2="1256.5" stroke="#dfe8ee" stroke-width="1.2" stroke-linecap="round" opacity="0.35"/>
<line x1="797.7" y1="1196.5" x2="792.9" y2="1256.5" stroke="#dfe8ee" stroke-width="1.2" stroke-linecap="round" opacity="0.35"/>
<line x1="797.7" y1="1196.5" x2="792.9" y2="1256.5" stroke="#dfe8ee" stroke-width="1.2" stroke-linecap="round" opacity="0.35"/>
<line x1="797.7" y1="1196.5" x2="792.9" y2="1256.5" stroke="#dfe8ee" stroke-width="1.2" stroke-linecap="round" opacity="0.35"/>
<line x1="797.7" y1="1196.5" x2="792.9" y2="1256.5" stroke="#dfe8ee" stroke-width="1.2" stroke-linecap="round" opacity="0.35"/>
<line x1="797.7" y1="1196.5" x2="792.9" y2="1256.5" stroke="#dfe8ee" stroke-width="1.2" stroke-linecap="round" opacity="0.35"/>
<line x1="797.7" y1="1196.5" x2="792.9" y2="1256.5" stroke="#dfe8ee" stroke-width="1.2" stroke-linecap="round" opacity="0.35"/>
<line x1="797.7" y1="1196.5" x2="792.9" y2="1256.5" stroke="#dfe8ee" stroke-width="1.2" stroke-linecap="round" opacity="0.35"/>
<ellipse cx="440" cy="1080" rx="96" ry="24" fill="#e4ebef" opacity="0.25"/>
<rect width="800" height="1200" fill="url(#vig)"/>
<g transform="translate(668, 1131)"><rect width="114" height="37.2" rx="8.4" fill="black" opacity="0.5"/><text x="57" y="26.4" text-anchor="middle" font-family="Inter, system-ui, sans-serif" font-size="18" font-weight="700" letter-spacing="1" fill="white" opacity="0.9">SAMPLE</text></g>
</svg>